<?xml version="1.0" encoding="UTF-8"?><svg id="Layer_2" xmlns="http://www.w3.org/2000/svg" viewBox="0 0 211.07 48"><defs><style>.cls-1{fill:#000111;}.cls-1,.cls-2{stroke-width:0px;}.cls-2{fill:#fff;}</style></defs><g id="Layer_1-2"><rect class="cls-2" width="211.07" height="48"/><polygon class="cls-1" points="38.32 31.22 38.32 36.09 33.45 36.09 20.99 23.64 20.99 36.08 14.15 36.08 14.15 11.91 38.32 11.91 38.32 18.76 25.87 18.76 38.32 31.22"/><path class="cls-1" d="M70.87,35.75l-1.69-4.83h-9.45l-1.73,4.83h-5.85l9.1-23.54h6.59l9.1,23.54h-6.08ZM62.4,23.51l-1.02,2.86h6.2l-1.02-2.86c-.76-2.12-1.4-4.03-1.92-5.73h-.27c-.34,1.07-.99,2.98-1.96,5.73Z"/><path class="cls-1" d="M89.62,35.75v-5.02h-.12c-.86,3.71-2.93,5.57-6.2,5.57-2.22,0-3.92-.86-5.08-2.57-1.16-1.71-1.75-4.1-1.75-7.16s.59-5.62,1.79-7.36c1.19-1.74,2.9-2.6,5.12-2.57,3.24-.05,5.3,1.8,6.16,5.57h.08v-10.51h5.34v24.05h-5.34ZM85.7,31.47c1.23,0,2.19-.42,2.88-1.26.69-.84,1.04-2.01,1.04-3.53v-.35c0-1.52-.35-2.71-1.06-3.59-.71-.88-1.66-1.31-2.86-1.31-2.62,0-3.92,1.71-3.92,5.14s1.31,4.9,3.92,4.9Z"/><path class="cls-1" d="M112.14,36.14c-3.06,0-5.47-1.09-7.24-3.26-1.77-2.17-2.65-5.03-2.65-8.59,0-3.87,1.01-6.94,3.02-9.2,2.01-2.26,4.92-3.39,8.71-3.39,3.14,0,5.6.77,7.38,2.31,1.78,1.54,2.86,3.71,3.26,6.51l-5.3,1.1c-.65-3.24-2.48-4.86-5.49-4.86-3.92,0-5.88,2.51-5.88,7.53,0,4.73,2.08,7.1,6.24,7.1,3.61,0,5.41-1.26,5.41-3.77v-.39h-5.81v-4.63h11.14v13.14h-5.34v-5.26h-.12c-.89,3.77-3.33,5.65-7.34,5.65Z"/><path class="cls-1" d="M135.88,36.26c-2.88,0-5.19-.81-6.92-2.43-1.74-1.62-2.61-3.95-2.61-6.98,0-3.22.84-5.72,2.53-7.51,1.69-1.79,4.05-2.69,7.08-2.69,2.77,0,4.88.79,6.34,2.37,1.45,1.58,2.18,3.69,2.18,6.34,0,.97-.03,1.79-.08,2.47h-12.71c.34,2.56,1.77,3.84,4.28,3.84,1.96,0,3.2-.89,3.73-2.67l4.63,1.29c-1.07,3.98-3.88,5.96-8.43,5.96ZM135.8,21.08c-2.38,0-3.74,1.24-4.08,3.73h7.85c-.16-2.48-1.41-3.73-3.77-3.73Z"/><path class="cls-1" d="M154.71,36.26c-2.88,0-5.19-.81-6.92-2.43-1.74-1.62-2.61-3.95-2.61-6.98,0-3.22.84-5.72,2.53-7.51,1.69-1.79,4.05-2.69,7.08-2.69,2.77,0,4.88.79,6.34,2.37,1.45,1.58,2.18,3.69,2.18,6.34,0,.97-.03,1.79-.08,2.47h-12.71c.34,2.56,1.77,3.84,4.28,3.84,1.96,0,3.2-.89,3.73-2.67l4.63,1.29c-1.07,3.98-3.88,5.96-8.43,5.96ZM154.63,21.08c-2.38,0-3.74,1.24-4.08,3.73h7.85c-.16-2.48-1.41-3.73-3.77-3.73Z"/><path class="cls-1" d="M170.08,11.7v12.71h.31l5.81-7.26h6.2v.08l-7.77,9.06,8.12,9.38v.08h-6.32l-6.12-7.45h-.24v7.45h-5.37V11.7h5.37Z"/><path class="cls-1" d="M190.45,36.3c-2.9,0-5.01-.56-6.32-1.69-1.31-1.12-2.12-2.65-2.43-4.59l4.98-.98c.55,2.2,1.84,3.3,3.88,3.3,1.7,0,2.58-.59,2.63-1.77,0-.55-.27-.99-.82-1.31-.55-.33-1.62-.65-3.22-.96-2.56-.55-4.37-1.28-5.41-2.2-1.05-.92-1.57-2.16-1.57-3.73,0-1.8.65-3.21,1.96-4.22,1.31-1.01,3.24-1.51,5.81-1.51s4.45.48,5.75,1.45c1.29.97,2.12,2.37,2.49,4.2l-5.1,1.14c-.21-1.02-.56-1.77-1.06-2.24-.5-.47-1.2-.71-2.12-.71-1.62,0-2.43.55-2.43,1.65,0,.58.26,1.04.78,1.39.52.35,1.63.69,3.33,1,2.54.5,4.32,1.22,5.34,2.18,1.02.96,1.53,2.18,1.53,3.67,0,3.95-2.67,5.92-8,5.92Z"/></g></svg>